<?xml version="1.0" encoding="utf-8"?>
<!-- Generator: Adobe Illustrator 19.2.0, SVG Export Plug-In . SVG Version: 6.00 Build 0)  -->
<svg version="1.1" id="Layer_1" xmlns="http://www.w3.org/2000/svg" xmlns:xlink="http://www.w3.org/1999/xlink" x="0px" y="0px"
	 viewBox="0 0 126.7 35.8" style="enable-background:new 0 0 126.7 35.8;" xml:space="preserve">
<style type="text/css">
	.st0{display:none;fill:#06A2D6;}
	.st1{fill:#FFFFFF;}
	.st2{fill:none;stroke:#002D5B;stroke-width:0.896;}
</style>
<rect x="-243.9" y="-9.4" class="st0" width="606.7" height="54"/>
<g>
	<path class="st1" d="M68.2,15.3h5.9v1h-6.9V3.8h6.9v1h-5.9v4.7h4.2v0.9h-4.2V15.3z"/>
	<path class="st1" d="M83.4,16.3l-3.5-5.5l-3.5,5.5h-1.1l4-6.4l-3.8-6.1h1.2L79.9,9l3.3-5.2h1.2c-1.3,2-2.6,4.1-3.9,6.1l4,6.4H83.4z
		"/>
</g>
<g>
	<path class="st1" d="M75.1,26.6c0,2.7-1.5,4.7-4.2,4.7c-2.5,0-4.2-1.8-4.2-4.3v-4.2c0-2.6,1.7-4.3,4.2-4.3c2.6,0,4.2,2,4.2,4.6
		h-1.7c-0.1-1.5-0.7-2.9-2.4-2.9c-1.2,0-2.4,0.8-2.4,2.6V27c0,1.7,1.1,2.6,2.4,2.6c1.9,0,2.4-1.6,2.4-3H75.1z"/>
	<path class="st1" d="M79,18.7v5.5h4.6v-5.5h1.7v12.5h-1.7v-5.5H79v5.5h-1.7V18.7H79z"/>
	<path class="st1" d="M95,31.2l-0.9-2.8h-4.6l-0.9,2.8h-1.8l4.1-12.5h2l4,12.5H95z M90,26.8h3.8l-1.9-6.3L90,26.8z"/>
	<path class="st1" d="M105.1,31.2l-5-9v9h-1.7V18.7h1.6l5,9v-9h1.8v12.5H105.1z"/>
	<path class="st1" d="M115.7,22.7c0-1.7-1.1-2.6-2.4-2.6c-1.5,0-2.4,0.9-2.4,3.2v3.8c0,1.7,1.1,2.6,2.4,2.6c1.4,0,2.4-0.9,2.4-2.6
		v-0.5h-2.4v-1.5h4.2v2c0,2.6-1.7,4.3-4.2,4.3c-2.4,0-4.1-1.8-4.1-4.3v-4.2c0-2.6,1.7-4.3,4.1-4.3c2.4,0,4.1,1.8,4.2,4.2H115.7z"/>
	<path class="st1" d="M121.5,29.5h5.2v1.7h-7V18.7h7v1.7h-5.2v3.8h3.8v1.5h-3.8V29.5z"/>
</g>
<g>
	<path class="st1" d="M20.8,4.5V15h5.1V16h-6V4.5H20.8z"/>
	<path class="st1" d="M28.5,15H34V16h-6.4V4.5H34v0.9h-5.4v4.3h3.9v0.9h-3.9V15z"/>
	<path class="st1" d="M38.5,16V5.4h-3.2V4.5h7.3v0.9h-3.2V16H38.5z"/>
	<path class="st1" d="M43.6,9.8l1.9-5.3h1l-2.2,5.3H43.6z"/>
	<path class="st1" d="M47.9,7.4c0-2.1,1.6-3.1,3.7-3.1c2,0,3.7,1.3,3.7,3.8h-1c0-2-1.2-2.9-2.7-2.9c-1.5,0-2.7,0.7-2.7,2.2
		c0,3.5,6.5,1.3,6.5,5.5c0,2.1-1.7,3.2-3.8,3.2c-2.1,0-3.8-1.4-3.8-4h0.9c0,2.1,1.3,3.1,2.9,3.1c1.6,0,2.8-0.8,2.8-2.3
		C54.4,9.6,47.9,11.8,47.9,7.4z"/>
</g>
<g>
	<path class="st1" d="M7.7,27.2c0,2.4-1.5,4.2-3.8,4.2c-2.3,0-3.8-1.6-3.8-4v-3.8c0-2.4,1.6-4,3.8-4c2.3,0,3.8,1.7,3.8,4.1h-1
		c0-1.8-1.1-3.2-2.9-3.2c-1.6,0-2.9,1.1-2.9,3v3.9c0,1.6,1,3,2.9,3c1.9,0,2.9-1.5,2.9-3.2H7.7z"/>
	<path class="st1" d="M10.7,19.7V25h5.4v-5.3h1v11.5h-1v-5.4h-5.4v5.4h-1V19.7H10.7z"/>
	<path class="st1" d="M26.8,31.2l-1-2.9h-5.1l-1,2.9h-1l4.1-11.5h1.1l4,11.5H26.8z M20.9,27.4h4.6l-2.3-6.7L20.9,27.4z"/>
	<path class="st1" d="M36.2,31.2l-5.9-9.7v9.7h-1V19.7h0.9l5.9,9.7v-9.6h1v11.4H36.2z"/>
	<path class="st1" d="M45.9,23.4c0-1.8-1.2-3-2.9-3c-1.7,0-2.9,1.2-2.9,3.3v3.6c0,1.9,1.2,3,2.9,3c1.7,0,2.9-1.2,2.9-3v-0.7h-2.9
		v-0.9h3.8v1.5c0,2.3-1.6,4-3.8,4c-2.3,0-3.8-1.6-3.8-4v-3.9c0-2.3,1.6-4,3.8-4c2.2,0,3.8,1.6,3.8,3.9H45.9z"/>
	<path class="st1" d="M50,30.3h5.4v0.9h-6.4V19.7h6.4v0.9H50v4.3h3.9v0.9H50V30.3z"/>
</g>
<line class="st2" x1="60.8" y1="0" x2="60.8" y2="35.8"/>
</svg>
