<?xml version="1.0" standalone="no"?>
<!DOCTYPE svg PUBLIC "-//W3C//DTD SVG 1.1//EN" "http://www.w3.org/Graphics/SVG/1.1/DTD/svg11.dtd" >
<svg xmlns="http://www.w3.org/2000/svg">
<metadata></metadata>
<defs>
<font id="korolev_condensedlight" horiz-adv-x="950" >
<font-face units-per-em="2048" ascent="1536" descent="-512" />
<missing-glyph horiz-adv-x="358" />
<glyph horiz-adv-x="0" />
<glyph horiz-adv-x="682" />
<glyph unicode=" "  horiz-adv-x="358" />
<glyph unicode="&#x09;" horiz-adv-x="358" />
<glyph unicode="&#xa0;" horiz-adv-x="358" />
<glyph unicode="!" horiz-adv-x="354" d="M106 59q0 29 21 50.5t49 21.5q30 0 51 -21t21 -51q0 -29 -20.5 -49t-51.5 -20q-28 0 -49 20t-21 49zM111 1384q0 33 17.5 52.5t47.5 19.5q29 0 46.5 -19t17.5 -53l-45 -1142h-37q-47 1117 -47 1142z" />
<glyph unicode="&#x22;" horiz-adv-x="546" d="M100 1444h109l-12 -549h-84zM338 1444h108l-12 -549h-84z" />
<glyph unicode="#" d="M104 563v96h162l29 140h-191v96h213l136 657h102l-135 -657h145l135 657h103l-135 -657h139v-96h-160l-31 -140h191v-96h-213l-133 -661h-101l134 661h-150l-131 -661h-102l133 661h-140zM367 659h147l31 140h-148z" />
<glyph unicode="$" horiz-adv-x="952" d="M94 389h107q0 -152 77 -229.5t201 -77.5q123 0 198 67.5t75 192.5q0 67 -27.5 124.5t-72 98t-102 80.5t-117 72.5t-117 74.5t-102 85.5t-72 107t-27.5 137.5q0 132 64 215.5t181 110.5v127h58v-117q36 4 61 4q20 0 56 -4v117h57v-127q119 -31 188.5 -126t69.5 -251h-107 q0 141 -75 215t-191 74q-113 0 -184.5 -60.5t-71.5 -169.5q0 -63 27.5 -117t72 -92t102 -76.5t117 -70.5t117 -74.5t102 -88.5t72 -113t27.5 -146q0 -141 -70 -235t-196 -123v-125h-57v115q-18 -2 -56 -2q-25 0 -61 4v-117h-58v127q-124 32 -195 132t-71 261z" />
<glyph unicode="%" horiz-adv-x="1783" d="M96 1032v66q0 167 87 264.5t243 97.5q153 0 241.5 -98.5t88.5 -263.5v-66q0 -171 -88.5 -269.5t-241.5 -98.5q-157 0 -243.5 98t-86.5 270zM195 1032q0 -132 59.5 -202t171.5 -70q109 0 170 70t61 202v66q0 127 -61.5 197.5t-169.5 70.5q-110 0 -170.5 -70t-60.5 -198 v-66zM580 -84l505 1636h103l-506 -1636h-102zM1014 354v66q0 166 87 264t242 98q154 0 243 -98.5t89 -263.5v-66q0 -171 -88.5 -269.5t-243.5 -98.5q-156 0 -242.5 98.5t-86.5 269.5zM1112 354q0 -133 60 -203.5t171 -70.5q110 0 171 71t61 203v66q0 127 -61.5 197.5 t-170.5 70.5t-170 -70.5t-61 -197.5v-66z" />
<glyph unicode="&#x26;" horiz-adv-x="1110" d="M90 436q0 118 57.5 195t155.5 106q-95 31 -148 110t-53 191v37q0 173 100.5 279t282.5 106q173 0 278 -109t105 -294h-106q0 144 -73.5 223.5t-201.5 79.5q-142 0 -211 -78.5t-69 -224.5q0 -145 67 -209t199 -64h131v-96h-149q-113 0 -185.5 -62t-72.5 -175v-33 q0 -336 288 -336q129 0 210 78t81 225v240h244v-101h-139q-2 -111 -2 -166q0 -167 -109.5 -271.5t-284.5 -104.5q-395 0 -395 454z" />
<glyph unicode="'" horiz-adv-x="307" d="M100 1444h107l-12 -549h-84z" />
<glyph unicode="(" horiz-adv-x="526" d="M102 283v888q0 84 8 141t29 105t58.5 75.5t96.5 42.5t144 15v-96q-62 0 -104 -10.5t-67.5 -29t-39 -53.5t-18 -73.5t-4.5 -99.5v-922q0 -62 4 -100.5t17.5 -74t39 -54t67.5 -29t105 -10.5v-96q-85 0 -144 15t-96.5 42.5t-58.5 76t-29 106t-8 141.5z" />
<glyph unicode=")" horiz-adv-x="526" d="M86 -2q62 0 103.5 10.5t67 29t39 54t17.5 74t4 100.5v922q0 61 -4 99.5t-17.5 73.5t-39 53.5t-67 29t-103.5 10.5v96q84 0 142.5 -15t96 -42.5t58.5 -75.5t29 -105t8 -141v-888q0 -84 -8 -141.5t-29 -106t-58.5 -76t-96 -42.5t-142.5 -15v96z" />
<glyph unicode="*" horiz-adv-x="856" d="M121 993l227 127l-227 127l41 70l227 -131l-2 260h82l-4 -260l227 129l43 -68l-231 -127l231 -125l-43 -69l-227 131l4 -260h-82l2 260l-227 -131z" />
<glyph unicode="+" horiz-adv-x="811" d="M102 680v96h254v264h97v-264h254v-96h-254v-266h-97v266h-254z" />
<glyph unicode="," horiz-adv-x="395" d="M20 -203l193 533h113l-217 -533h-89z" />
<glyph unicode="-" horiz-adv-x="606" d="M86 596v86h432v-86h-432z" />
<glyph unicode="." horiz-adv-x="311" d="M84 59q0 30 21 51t51 21q29 0 49 -21t20 -51q0 -29 -20 -49t-49 -20q-31 0 -51.5 20t-20.5 49z" />
<glyph unicode="/" horiz-adv-x="522" d="M37 -98l340 1650h106l-342 -1650h-104z" />
<glyph unicode="0" horiz-adv-x="983" d="M104 387v666q0 180 107 291.5t278 111.5t280.5 -112t109.5 -291v-666q0 -177 -109.5 -289t-280.5 -112q-170 0 -277.5 112t-107.5 289zM209 395q0 -143 77 -224t203 -81t203.5 81t77.5 224v652q0 143 -77.5 225t-203.5 82t-203 -81.5t-77 -225.5v-652z" />
<glyph unicode="1" horiz-adv-x="442" d="M57 1231v102q89 0 118.5 22.5t29.5 88.5h100v-1444h-106v1260q-35 -29 -142 -29z" />
<glyph unicode="2" horiz-adv-x="954" d="M88 0v61q0 88 22.5 167t60.5 139.5t87 116t103.5 102t108.5 91.5t103 91t87 94t60.5 107.5t22.5 124.5q0 125 -76 197.5t-200 72.5q-123 0 -198.5 -81t-75.5 -212h-105q0 176 106 283.5t273 107.5q170 0 273.5 -102.5t103.5 -274.5q0 -92 -36 -173.5t-93 -143.5 t-126 -120.5t-138.5 -116.5t-126.5 -119t-93 -140.5t-36 -169.5h630v-102h-737z" />
<glyph unicode="3" horiz-adv-x="962" d="M84 393h109q0 -147 77.5 -229t206.5 -82q146 0 216.5 78t70.5 235q0 136 -68.5 214.5t-189.5 78.5h-162v96h160q114 0 181 67.5t67 184.5v35q0 136 -74 213.5t-205 77.5q-125 0 -201.5 -82t-76.5 -223h-103q0 187 103 295t280 108q187 0 285 -108.5t98 -294.5 q0 -125 -52.5 -207t-148.5 -113q213 -65 213 -323v-19q0 -195 -102 -304t-291 -109q-180 0 -286.5 109.5t-106.5 301.5z" />
<glyph unicode="4" horiz-adv-x="985" d="M70 391v98l573 955h96v-952h172v-101h-172v-391h-104v391h-565zM180 494q303 0 455 -2v751z" />
<glyph unicode="5" horiz-adv-x="972" d="M92 385h107q0 -142 77 -221.5t201 -79.5q138 0 210.5 89.5t72.5 262.5v142q0 163 -69 250t-212 87q-101 0 -163 -45t-101 -127l-98 17l104 684h582v-105h-496q-44 -300 -69 -452q37 55 104.5 90t161.5 35q81 0 145 -25t104 -65.5t66 -98t36.5 -117.5t10.5 -128v-166 q0 -197 -101 -312.5t-286 -115.5q-171 0 -279 111t-108 290z" />
<glyph unicode="6" d="M90 393v156q0 228 76 377l268 518h117l-242 -461q79 43 187 43q78 0 139 -21.5t102.5 -59.5t69 -93.5t39.5 -121t12 -144.5v-185q0 -195 -98.5 -307t-286.5 -112q-186 0 -284.5 110t-98.5 301zM197 438q0 -185 64 -271.5t212 -86.5q146 0 212.5 87t66.5 271v119 q0 190 -63.5 282.5t-215.5 92.5q-154 0 -215 -92.5t-61 -282.5v-119z" />
<glyph unicode="7" horiz-adv-x="837" d="M88 1339v105h696l-428 -1444h-114l403 1339h-557z" />
<glyph unicode="8" horiz-adv-x="968" d="M92 375q0 285 209 348q-197 65 -197 309v43q0 177 99 278t280 101q195 0 288 -101.5t93 -303.5q0 -122 -50.5 -208t-145.5 -116q102 -29 155.5 -113.5t53.5 -191.5v-45q0 -184 -103 -289.5t-291 -105.5q-194 0 -292.5 101t-98.5 294zM199 367q0 -140 74 -213.5t210 -73.5 q146 0 215.5 80t69.5 241q0 159 -75.5 221t-243.5 62q-250 0 -250 -317zM207 1049q0 -135 65.5 -206t188.5 -71h43q120 0 187 62.5t67 179.5v61q0 135 -72 207t-203 72q-141 0 -208.5 -76.5t-67.5 -228.5z" />
<glyph unicode="9" d="M90 858v180q0 195 98.5 307.5t286.5 112.5q186 0 284.5 -110t98.5 -301v-152q0 -228 -76 -377l-268 -518h-117l242 461q-79 -43 -186 -43q-97 0 -168 32.5t-113 92t-62 138t-20 177.5zM197 887q0 -191 63 -283t215 -92q154 0 215.5 93t61.5 282v114q0 185 -64.5 271 t-212.5 86q-146 0 -212 -86.5t-66 -270.5v-114z" />
<glyph unicode=":" horiz-adv-x="311" d="M84 59q0 30 21 51t51 21q29 0 49 -21t20 -51q0 -29 -20 -49t-49 -20q-31 0 -51.5 20t-20.5 49zM84 1087q0 31 20.5 51.5t51.5 20.5q29 0 49 -20.5t20 -51.5q0 -28 -20 -48.5t-49 -20.5q-30 0 -51 20.5t-21 48.5z" />
<glyph unicode=";" horiz-adv-x="411" d="M20 -203l193 533h113l-217 -533h-89zM172 1087q0 31 20.5 51.5t49.5 20.5q30 0 50.5 -20.5t20.5 -51.5q0 -28 -21 -48.5t-50 -20.5t-49.5 20.5t-20.5 48.5z" />
<glyph unicode="&#x3c;" horiz-adv-x="796" d="M102 627v75l590 320v-104l-483 -254l483 -254v-105z" />
<glyph unicode="=" horiz-adv-x="770" d="M102 561v96h564v-96h-564zM102 803v96h564v-96h-564z" />
<glyph unicode="&#x3e;" horiz-adv-x="796" d="M102 305v105l482 254l-482 254v104l590 -320v-75z" />
<glyph unicode="?" horiz-adv-x="882" d="M55 1071q0 185 101.5 288t279.5 103q169 0 268 -98t99 -244q0 -79 -21.5 -145t-55.5 -113.5t-75 -91t-82.5 -89t-75.5 -95.5t-55.5 -122t-21.5 -159q0 -40 2 -63h-37q-19 77 -19 159q0 72 18.5 134.5t48 108t65.5 87.5t72 82t65.5 82t48 97t18.5 118q0 106 -70 177 t-192 71q-128 0 -202 -74t-74 -213h-105zM330 59q0 30 20.5 51t50.5 21q29 0 49.5 -21.5t20.5 -50.5t-20 -48t-50 -19q-31 0 -51 19t-20 48z" />
<glyph unicode="@" horiz-adv-x="1103" d="M119 424v590q0 208 120 326t318 118q193 0 309.5 -118t116.5 -326v-594q0 -58 -18.5 -99t-44 -63t-67.5 -34t-74.5 -14.5t-78.5 -2.5v92q-53 -100 -172 -100q-215 0 -215 272v508q0 120 54.5 188t160.5 68q123 0 172 -96v90h78v-965q148 4 148 156v594 q0 182 -100.5 285.5t-268.5 103.5q-173 0 -277 -103.5t-104 -285.5v-590q0 -183 108.5 -283t309.5 -100h297v-55h-297q-228 0 -351.5 114t-123.5 324zM395 473q0 -103 35 -154t119 -51q79 0 114 51.5t35 153.5v496q0 198 -149 198q-154 0 -154 -192v-502z" />
<glyph unicode="A" horiz-adv-x="989" d="M33 0l405 1444h117l399 -1444h-110l-99 365h-501l-101 -365h-110zM268 459h455l-225 829z" />
<glyph unicode="B" d="M135 0v1444h340q377 0 377 -318v-116q0 -117 -44.5 -183.5t-131.5 -93.5q93 -31 139.5 -95.5t46.5 -180.5v-133q0 -324 -377 -324h-350zM242 102h241q135 0 204 53.5t69 186.5v121q0 225 -248 225h-266v-586zM242 778h270q115 0 174 53.5t59 176.5v100q0 127 -68 179 t-204 52h-231v-561z" />
<glyph unicode="C" horiz-adv-x="966" d="M106 387v670q0 178 108 290.5t278 112.5q171 0 280 -112.5t109 -290.5v-43h-107v47q0 135 -78.5 215t-203.5 80q-122 0 -201.5 -79.5t-79.5 -215.5v-676q0 -136 78.5 -215.5t202.5 -79.5q122 0 202 79.5t80 215.5v51h107v-49q0 -177 -109 -289t-280 -112q-170 0 -278 112 t-108 289z" />
<glyph unicode="D" horiz-adv-x="993" d="M137 0v1444h264h91q196 0 296.5 -115t100.5 -342v-485q0 -265 -96 -383.5t-299 -118.5h-357zM242 102h250q161 0 225.5 88t64.5 295v523q0 331 -290 331h-250v-1237z" />
<glyph unicode="E" horiz-adv-x="851" d="M135 0v1444h643v-105h-536v-559h385v-96h-385v-582h536v-102h-643z" />
<glyph unicode="F" horiz-adv-x="825" d="M135 0v1444h621v-105h-514v-559h356v-96h-356v-684h-107z" />
<glyph unicode="G" horiz-adv-x="980" d="M104 385v670q0 179 107.5 292t277.5 113q167 0 276 -111t112 -284h-107q-1 133 -80 212t-201 79t-201 -80.5t-79 -216.5v-676q0 -136 78 -215.5t202 -79.5q134 0 207.5 91t73.5 249v133h-283v96h390v-213q0 -209 -99.5 -334.5t-288.5 -125.5q-170 0 -277.5 112 t-107.5 289z" />
<glyph unicode="H" horiz-adv-x="1015" d="M135 0v1444h107v-664h528v664h107v-1444h-107v684h-528v-684h-107z" />
<glyph unicode="I" horiz-adv-x="378" d="M135 0v1444h107v-1444h-107z" />
<glyph unicode="J" horiz-adv-x="919" d="M70 383v80h106v-82q0 -138 70 -216.5t188 -78.5q124 0 190 81.5t66 231.5v1045h109v-1061q0 -179 -98.5 -290t-266.5 -111q-169 0 -266.5 110.5t-97.5 290.5z" />
<glyph unicode="K" horiz-adv-x="911" d="M135 0v1444h107v-660h116l406 660h127l-447 -709l447 -735h-127l-406 686h-116v-686h-107z" />
<glyph unicode="L" horiz-adv-x="798" d="M135 0v1444h107v-1342h501v-102h-608z" />
<glyph unicode="M" horiz-adv-x="1234" d="M137 0v1444h101l376 -1110l379 1110h103v-1444h-107v1147l-334 -973h-82l-331 971v-1145h-105z" />
<glyph unicode="N" horiz-adv-x="1054" d="M137 0v1444h94l578 -1208v1202h106v-1438h-96l-577 1200v-1200h-105z" />
<glyph unicode="O" horiz-adv-x="983" d="M104 387v670q0 178 107.5 290.5t277.5 112.5q171 0 280.5 -112.5t109.5 -290.5v-670q0 -177 -109.5 -289t-280.5 -112q-170 0 -277.5 112t-107.5 289zM209 385q0 -136 78 -215.5t202 -79.5q122 0 202.5 79.5t80.5 215.5v676q0 135 -79 215t-204 80q-122 0 -201 -79.5 t-79 -215.5v-676z" />
<glyph unicode="P" horiz-adv-x="940" d="M135 0v1444h344q174 0 276.5 -103.5t102.5 -291.5v-238q0 -187 -102 -287t-277 -100h-237v-424h-107zM242 526h229q130 0 206.5 72t76.5 213v238q0 148 -76 219t-207 71h-229v-813z" />
<glyph unicode="Q" horiz-adv-x="983" d="M104 385v672q0 178 107.5 290.5t277.5 112.5q172 0 281 -112.5t109 -290.5v-672q0 -162 -88 -269t-234 -126l135 -205h-119q-8 13 -21 34t-41 66t-46.5 74.5t-18.5 28.5q-155 12 -248.5 121t-93.5 276zM209 383q0 -136 78 -216.5t202 -80.5t203.5 79t79.5 218v678 q0 135 -79 215t-204 80q-122 0 -201 -79.5t-79 -215.5v-678z" />
<glyph unicode="R" horiz-adv-x="940" d="M135 0v1444h336q177 0 282 -101t105 -286v-207q0 -162 -79 -253.5t-216 -115.5l297 -481h-127l-276 463h-215v-463h-107zM242 565h221q134 0 212.5 72t78.5 221v201q0 142 -79 211t-212 69h-221v-774z" />
<glyph unicode="S" horiz-adv-x="954" d="M94 389h107q0 -152 77 -229.5t201 -77.5q123 0 198 67.5t75 192.5q0 67 -27.5 124.5t-72 98t-102 80.5t-117 72.5t-117 74.5t-102 85.5t-72 107t-27.5 137.5q0 163 97 251.5t267 88.5q166 0 268.5 -100t102.5 -291h-107q0 141 -75 215t-191 74q-113 0 -184.5 -60.5 t-71.5 -169.5q0 -63 27.5 -117t72 -92t102 -76.5t117 -70.5t117 -74.5t102 -88.5t72 -113t27.5 -146q0 -170 -101 -270t-278 -100q-173 0 -279 105t-106 302z" />
<glyph unicode="T" horiz-adv-x="856" d="M57 1339v105h740v-105h-318v-1339h-106v1339h-316z" />
<glyph unicode="U" horiz-adv-x="1015" d="M119 387v1057h106v-1059q0 -137 81.5 -216t201.5 -79q123 0 201.5 80t78.5 215v1059h107v-1057q0 -176 -109 -288.5t-278 -112.5q-172 0 -280.5 112t-108.5 289z" />
<glyph unicode="V" horiz-adv-x="974" d="M37 1444h110l336 -1237l338 1237h111l-395 -1444h-105z" />
<glyph unicode="W" horiz-adv-x="1386" d="M37 1444h108l261 -1192l239 1192h92l240 -1192l260 1192h109l-316 -1444h-100l-238 1182l-239 -1182h-103z" />
<glyph unicode="X" horiz-adv-x="929" d="M35 0l368 737l-352 707h117l297 -598l297 598h115l-355 -707l369 -737h-115l-313 625l-311 -625h-117z" />
<glyph unicode="Y" horiz-adv-x="966" d="M35 1444h115l331 -752l334 752h115l-395 -883v-561h-107v561z" />
<glyph unicode="Z" horiz-adv-x="868" d="M53 0l586 1339h-549v105h705l-586 -1342h561v-102h-717z" />
<glyph unicode="[" horiz-adv-x="542" d="M135 -96v1646h320v-96h-217v-1456h217v-94h-320z" />
<glyph unicode="\" horiz-adv-x="522" d="M37 1552h104l342 -1650h-106z" />
<glyph unicode="]" horiz-adv-x="542" d="M86 -2h217v1456h-217v96h320v-1646h-320v94z" />
<glyph unicode="^" horiz-adv-x="886" d="M84 811l313 578h88l314 -578h-105l-254 475l-250 -475h-106z" />
<glyph unicode="_" horiz-adv-x="925" d="M88 -131h748v-86h-748v86z" />
<glyph unicode="`" horiz-adv-x="798" d="M199 1448h112l133 -262h-90z" />
<glyph unicode="a" horiz-adv-x="874" d="M78 279v38q0 79 32.5 137t84.5 91.5t114.5 59t125 48t114.5 49.5t84.5 72.5t32.5 108.5q0 77 -61.5 134.5t-166.5 57.5q-117 0 -180 -60.5t-63 -180.5h-101q0 164 88.5 248.5t257.5 84.5q165 0 247.5 -86t82.5 -241v-840h-98v147q-30 -67 -99.5 -114t-187.5 -47 q-142 0 -224.5 77.5t-82.5 215.5zM182 289q0 -104 54 -158.5t174 -54.5q42 0 77 9t59.5 22.5t44.5 37.5t32 44.5t21 53t13 53.5t6.5 56.5t2.5 51.5v47v256q-28 -47 -90 -82.5t-127 -58.5t-126.5 -51t-101 -77.5t-39.5 -120.5v-28z" />
<glyph unicode="b" horiz-adv-x="917" d="M119 0v1542h102v-532q33 67 103 110t170 43q154 0 239.5 -93.5t85.5 -262.5v-463q0 -171 -85.5 -265.5t-239.5 -94.5q-101 0 -172.5 43t-104.5 110v-137h-98zM221 350q0 -131 65.5 -203.5t180.5 -72.5q118 0 183 72.5t65 203.5v451q0 129 -64.5 201.5t-183.5 72.5 q-113 0 -179.5 -70t-66.5 -194v-461z" />
<glyph unicode="c" horiz-adv-x="886" d="M96 348v447q0 170 92 269t258 99q165 0 257 -98.5t92 -271.5h-105q0 132 -63.5 204t-180.5 72q-120 0 -183.5 -70t-63.5 -202v-457q0 -125 65 -194.5t182 -69.5q116 0 180 71t64 201h105q0 -171 -92.5 -267.5t-256.5 -96.5q-166 0 -258 97.5t-92 266.5z" />
<glyph unicode="d" horiz-adv-x="917" d="M96 344v461q0 170 85.5 264t238.5 94q101 0 171.5 -42.5t100.5 -108.5v530h103v-1542h-99v137q-31 -66 -103.5 -109.5t-172.5 -43.5q-153 0 -238.5 94.5t-85.5 265.5zM199 350q0 -131 65 -203.5t182 -72.5q116 0 181 72.5t65 203.5v461q0 124 -65.5 193t-180.5 69 q-118 0 -182.5 -72t-64.5 -202v-449z" />
<glyph unicode="e" horiz-adv-x="886" d="M96 352v445q0 169 92 266.5t258 97.5q161 0 255 -96.5t94 -257.5v-262h-596v-203q0 -126 65.5 -197t181.5 -71q112 0 178 63.5t66 161.5v23h105v-3v-10q0 -140 -94 -232.5t-255 -92.5q-166 0 -258 98t-92 270zM199 627h491v180q0 121 -65.5 190.5t-178.5 69.5 q-116 0 -181.5 -68.5t-65.5 -187.5v-184z" />
<glyph unicode="f" horiz-adv-x="550" d="M70 1057v92h108q0 229 52 314t194 85q16 0 32.5 -1t27 -2t12.5 -1v-92q-24 4 -50 4q-105 0 -135 -58.5t-30 -248.5h213v-92h-213v-1057h-103v1057h-108z" />
<glyph unicode="g" horiz-adv-x="915" d="M96 346v461q0 167 84 260.5t232 93.5q103 0 177.5 -41t106.5 -108v137h99v-1217q0 -175 -80.5 -260.5t-268.5 -85.5q-94 0 -162 23t-105 64t-53.5 89t-16.5 107h98q0 -86 57.5 -141.5t181.5 -55.5q129 0 186.5 60t57.5 184v221q-31 -68 -100.5 -110.5t-169.5 -42.5 q-153 0 -238.5 95t-85.5 267zM199 360q0 -140 63.5 -214t183.5 -74q116 0 180 71.5t64 202.5v465q0 125 -64.5 194.5t-179.5 69.5q-118 0 -182.5 -72t-64.5 -202v-441z" />
<glyph unicode="h" horiz-adv-x="925" d="M119 0v1542h102v-532q34 73 107 113t170 40q149 0 235 -91t86 -261v-811h-104v803q0 128 -63 199t-185 71q-118 0 -182 -69t-64 -197v-807h-102z" />
<glyph unicode="i" horiz-adv-x="327" d="M94 1366q0 30 20 50t50 20q28 0 48.5 -20t20.5 -50q0 -26 -20.5 -47t-48.5 -21q-29 0 -49.5 20.5t-20.5 47.5zM111 0v1149h104v-1149h-104z" />
<glyph unicode="j" horiz-adv-x="327" d="M-84 -315q118 0 158.5 58.5t40.5 209.5v1196h102v-1182q0 -104 -13 -171t-46.5 -115.5t-92 -69.5t-149.5 -21v95zM94 1366q0 30 21 50t49 20t47.5 -20t19.5 -50q0 -27 -20 -47.5t-47 -20.5q-28 0 -49 21t-21 47z" />
<glyph unicode="k" horiz-adv-x="843" d="M119 0v1542h102v-915h96l353 522h121l-392 -567l396 -582h-123l-355 537h-96v-537h-102z" />
<glyph unicode="l" horiz-adv-x="342" d="M119 0v1542h102v-1542h-102z" />
<glyph unicode="m" horiz-adv-x="1304" d="M119 0v1149h98v-111q29 55 85 90t138 35q86 0 148.5 -41t93.5 -118q27 70 93 114.5t157 44.5q127 0 195.5 -82.5t68.5 -232.5v-848h-102v856q0 104 -51.5 162.5t-139.5 58.5q-87 0 -139.5 -56t-52.5 -155v-866h-103v856q0 104 -52 162.5t-140 58.5q-89 0 -142 -56 t-53 -155v-866h-102z" />
<glyph unicode="n" horiz-adv-x="925" d="M119 0v1149h98v-139q33 66 105 109.5t172 43.5q154 0 239.5 -93.5t85.5 -262.5v-807h-104v801q0 129 -64.5 201.5t-183.5 72.5q-124 0 -185 -78t-61 -221v-776h-102z" />
<glyph unicode="o" horiz-adv-x="892" d="M96 352v447q0 168 92 265t258 97q162 0 255.5 -98t93.5 -264v-447q0 -171 -93.5 -269.5t-255.5 -98.5q-166 0 -258 98t-92 270zM199 342q0 -125 65.5 -193.5t181.5 -68.5q114 0 179 68.5t65 193.5v467q0 120 -65.5 189t-178.5 69q-116 0 -181.5 -68.5t-65.5 -189.5v-467z " />
<glyph unicode="p" horiz-adv-x="925" d="M119 -383v1532h98v-141q33 66 105.5 109.5t171.5 43.5q156 0 240.5 -98t84.5 -279v-438q0 -169 -85.5 -263.5t-239.5 -94.5q-100 0 -170.5 43.5t-102.5 109.5v-524h-102zM221 352q0 -129 66 -201.5t180 -72.5q118 0 183 72.5t65 201.5v443q0 131 -65 203.5t-183 72.5 q-114 0 -180 -70t-66 -196v-453z" />
<glyph unicode="q" horiz-adv-x="923" d="M104 346v453q0 171 85.5 266.5t236.5 95.5q103 0 173.5 -43.5t102.5 -111.5v143h99v-1532h-103v524q-34 -65 -104 -109t-168 -44q-151 0 -236.5 95t-85.5 263zM207 348q0 -129 64.5 -200.5t181.5 -71.5q115 0 180 72t65 200v455q0 128 -65.5 198t-179.5 70 q-117 0 -181.5 -73t-64.5 -205v-445z" />
<glyph unicode="r" horiz-adv-x="577" d="M119 0v1149h98v-152q31 75 105 120.5t184 45.5v-102q-84 0 -140.5 -24.5t-88 -76t-44 -118.5t-12.5 -164v-678h-102z" />
<glyph unicode="s" horiz-adv-x="851" d="M78 319h102q0 -117 66.5 -183t183.5 -66q111 0 173.5 58.5t62.5 147.5q0 54 -31.5 97.5t-81.5 75t-110.5 62t-121 64.5t-110.5 75t-81.5 103t-31.5 138q0 123 84.5 199.5t235.5 76.5q167 0 254.5 -85t87.5 -246h-98q0 237 -240 237q-104 0 -163.5 -51.5t-59.5 -130.5 q0 -50 19.5 -91.5t52.5 -71t75.5 -55t90 -48.5t94.5 -46.5t89.5 -52.5t75.5 -63.5t52.5 -84t19.5 -108.5q0 -117 -89 -203.5t-249 -86.5q-166 0 -259 90.5t-93 248.5z" />
<glyph unicode="t" horiz-adv-x="559" d="M27 1057v80q87 0 110 36t23 162h76v-186h258v-92h-258v-711q0 -74 6.5 -119t26 -80t55.5 -50t94 -15q22 0 41.5 1.5t28.5 2.5l8 2v-96q-29 -6 -82 -6q-89 0 -146 23.5t-86 73.5t-39 109.5t-10 151.5v713h-106z" />
<glyph unicode="u" horiz-adv-x="909" d="M104 422v727h101v-739q0 -334 250 -334q245 0 245 334v739h103v-727q0 -438 -348 -438q-185 0 -268 113.5t-83 324.5z" />
<glyph unicode="v" horiz-adv-x="872" d="M43 1149h113l282 -973l279 973h110l-340 -1149h-100z" />
<glyph unicode="w" horiz-adv-x="1245" d="M37 1149h106l224 -928l208 928h91l208 -930l226 930h106l-282 -1149h-95l-208 922l-209 -922h-97z" />
<glyph unicode="x" horiz-adv-x="876" d="M43 0l336 592l-313 557h116l254 -465l254 465h119l-315 -557l337 -592h-116l-279 500l-278 -500h-115z" />
<glyph unicode="y" horiz-adv-x="886" d="M43 1149h113l284 -967l289 967h111l-455 -1487h-109l111 352z" />
<glyph unicode="z" horiz-adv-x="796" d="M57 0l514 1055h-495v94h649l-516 -1055h487v-94h-639z" />
<glyph unicode="{" horiz-adv-x="555" d="M70 680v94q24 0 40.5 9t25.5 22t13.5 38t5.5 47t1 60v148q0 98 8 167.5t28.5 126t56 90t89 51t129.5 17.5v-96q-93 0 -139.5 -42.5t-57.5 -133.5q-8 -63 -10.5 -165.5t-4 -171t-18 -131.5t-51.5 -83q35 -20 51.5 -83t18 -131.5t4 -171t10.5 -165.5q11 -91 57.5 -133.5 t139.5 -42.5v-96q-76 0 -129.5 17.5t-89 51t-56 90t-28.5 126t-8 167.5v148q0 38 -1 60t-5.5 47t-13.5 38t-25.5 22t-40.5 9z" />
<glyph unicode="|" horiz-adv-x="342" d="M119 -98v1650h102v-1650h-102z" />
<glyph unicode="}" horiz-adv-x="555" d="M86 0q93 0 139.5 42.5t57.5 133.5q8 63 10.5 165.5t4 171t18 131.5t51.5 83q-35 20 -51.5 83t-18 131.5t-4 171t-10.5 165.5q-11 91 -57.5 133.5t-139.5 42.5v96q76 0 129.5 -17.5t89 -51t56 -90t28.5 -126t8 -167.5v-148q0 -38 1 -60t5.5 -47t13.5 -38t25.5 -22t40.5 -9 v-94q-24 0 -40.5 -9t-25.5 -22t-13.5 -38t-5.5 -47t-1 -60v-148q0 -98 -8 -167.5t-28.5 -126t-56 -90t-89 -51t-129.5 -17.5v96z" />
<glyph unicode="&#xa2;" horiz-adv-x="882" d="M96 348v447q0 136 60 228t172 124v133h57v-121q36 4 61 4q20 0 56 -4v121h57v-131q113 -31 174.5 -124t61.5 -232h-105q0 132 -63.5 204t-180.5 72q-120 0 -183.5 -70t-63.5 -202v-457q0 -125 65 -194.5t182 -69.5q116 0 180 71t64 201h105q0 -139 -61.5 -230 t-174.5 -120v-129h-57v119q-36 -4 -56 -4q-25 0 -61 4v-119h-57v131q-112 31 -172 121.5t-60 226.5z" />
<glyph unicode="&#xa3;" horiz-adv-x="972" d="M104 0v102h383q-1 106 -34 198t-93 200h-247v57h219l-64 119h-155v55h125q-52 116 -71.5 199t-19.5 176q0 159 102 257.5t267 98.5q164 0 266.5 -107.5t102.5 -283.5h-105q0 134 -72 211.5t-192 77.5q-122 0 -193 -71.5t-71 -194.5q0 -84 20 -162.5t74 -200.5h301v-55 h-272l63 -119h209v-57h-180q56 -104 87 -196.5t32 -201.5h274v-102h-756z" />
<glyph unicode="&#xa5;" horiz-adv-x="966" d="M35 1444h115l331 -756l334 756h115l-395 -881v-121h147v-57h-147v-119h143v-55h-143v-211h-107v211h-143v55h143v119h-143v57h143v121z" />
<glyph unicode="&#xa8;" horiz-adv-x="745" d="M188 1243q0 25 17.5 42.5t42.5 17.5t42 -17.5t17 -42.5t-17 -42t-42 -17t-42.5 17t-17.5 42zM436 1243q0 25 17.5 42.5t42.5 17.5t42 -17.5t17 -42.5t-17 -42t-42 -17t-42.5 17t-17.5 42z" />
<glyph unicode="&#xa9;" horiz-adv-x="1103" d="M123 424v592q0 208 118.5 326t315.5 118q193 0 309.5 -118t116.5 -326v-592q0 -207 -116 -322.5t-310 -115.5q-197 0 -315.5 115.5t-118.5 322.5zM178 424q0 -180 103.5 -281.5t275.5 -101.5q168 0 268.5 101.5t100.5 281.5v592q0 182 -100.5 285.5t-268.5 103.5 q-171 0 -275 -103.5t-104 -285.5v-592zM311 453v528q0 127 62.5 197.5t183.5 70.5q120 0 182 -68t62 -194v-59h-82v53q0 92 -43 141t-119 49q-86 0 -125 -48.5t-39 -143.5v-533q0 -176 164 -176q162 0 162 187v53h82v-59q0 -124 -62 -192.5t-182 -68.5t-183 70t-63 193z" />
<glyph unicode="&#xab;" horiz-adv-x="722" d="M86 643l213 334h88l-190 -334l190 -330h-88zM334 643l215 334h88l-193 -334l193 -330h-88z" />
<glyph unicode="&#xad;" horiz-adv-x="606" d="M86 596v86h432v-86h-432z" />
<glyph unicode="&#xae;" horiz-adv-x="1103" d="M123 424v592q0 208 118.5 326t315.5 118q193 0 309.5 -118t116.5 -326v-592q0 -207 -116 -322.5t-310 -115.5q-197 0 -315.5 115.5t-118.5 322.5zM178 424q0 -180 103.5 -281.5t275.5 -101.5q168 0 268.5 101.5t100.5 281.5v592q0 182 -100.5 285.5t-268.5 103.5 q-171 0 -275 -103.5t-104 -285.5v-592zM336 203v1030h178q84 0 138.5 -21.5t83.5 -69.5t39.5 -109t10.5 -154v-64q0 -58 -4 -96.5t-16 -75.5t-34.5 -59.5t-60 -39.5t-91.5 -24l211 -317h-95l-194 303h-86v-303h-80zM416 584h92q55 0 89 7t57 21.5t34 45t15 69t4 102.5v76 q0 72 -6.5 115t-27 76t-59 46t-102.5 13h-96v-571z" />
<glyph unicode="&#xb4;" horiz-adv-x="798" d="M352 1186l131 262h113l-156 -262h-88z" />
<glyph unicode="&#xb8;" horiz-adv-x="831" d="M233 -242l158 291h78l-123 -291h-113z" />
<glyph unicode="&#xbb;" horiz-adv-x="722" d="M84 313l192 330l-192 334h88l215 -334l-215 -330h-88zM334 313l190 330l-190 334h88l213 -334l-213 -330h-88z" />
<glyph unicode="&#x2c6;" d="M197 1188l229 252h98l228 -252h-99l-178 180l-180 -180h-98z" />
<glyph unicode="&#x2da;" horiz-adv-x="858" d="M311 1300q0 51 34 85t85 34t86 -34t35 -85q0 -50 -35 -84t-86 -34t-85 34t-34 84zM373 1300q0 -24 16.5 -40.5t40.5 -16.5q25 0 41 16t16 41t-16 41.5t-41 16.5q-24 0 -40.5 -17t-16.5 -41z" />
<glyph unicode="&#x2dc;" horiz-adv-x="946" d="M197 1178v94q75 51 151 51q48 0 126 -26.5t116 -26.5q76 0 155 65v-96q-77 -59 -153 -59q-44 0 -120 28.5t-118 28.5q-75 0 -157 -59z" />
<glyph unicode="&#x2000;" horiz-adv-x="787" />
<glyph unicode="&#x2001;" horiz-adv-x="1575" />
<glyph unicode="&#x2002;" horiz-adv-x="787" />
<glyph unicode="&#x2003;" horiz-adv-x="1575" />
<glyph unicode="&#x2004;" horiz-adv-x="525" />
<glyph unicode="&#x2005;" horiz-adv-x="393" />
<glyph unicode="&#x2006;" horiz-adv-x="262" />
<glyph unicode="&#x2007;" horiz-adv-x="262" />
<glyph unicode="&#x2008;" horiz-adv-x="196" />
<glyph unicode="&#x2009;" horiz-adv-x="315" />
<glyph unicode="&#x200a;" horiz-adv-x="87" />
<glyph unicode="&#x2010;" horiz-adv-x="606" d="M86 596v86h432v-86h-432z" />
<glyph unicode="&#x2011;" horiz-adv-x="606" d="M86 596v86h432v-86h-432z" />
<glyph unicode="&#x2012;" horiz-adv-x="606" d="M86 596v86h432v-86h-432z" />
<glyph unicode="&#x2013;" horiz-adv-x="724" d="M88 596v86h547v-86h-547z" />
<glyph unicode="&#x2014;" horiz-adv-x="925" d="M88 596v86h748v-86h-748z" />
<glyph unicode="&#x2018;" horiz-adv-x="409" d="M51 909l215 535h90l-192 -535h-113z" />
<glyph unicode="&#x2019;" horiz-adv-x="395" d="M53 909l191 535h112l-215 -535h-88z" />
<glyph unicode="&#x201a;" horiz-adv-x="395" d="M20 -203l193 533h113l-217 -533h-89z" />
<glyph unicode="&#x201c;" horiz-adv-x="651" d="M51 909l215 535h90l-192 -535h-113zM291 909l217 535h88l-193 -535h-112z" />
<glyph unicode="&#x201d;" horiz-adv-x="634" d="M53 909l191 535h112l-217 -535h-86zM293 909l192 535h111l-215 -535h-88z" />
<glyph unicode="&#x201e;" horiz-adv-x="634" d="M20 -215l193 530h113l-217 -530h-89zM260 -215l193 530h110l-215 -530h-88z" />
<glyph unicode="&#x2022;" horiz-adv-x="839" d="M104 666v10q0 154 83 243t233 89q148 0 231.5 -89.5t83.5 -242.5v-10q0 -157 -83 -245.5t-232 -88.5q-151 0 -233.5 88t-82.5 246z" />
<glyph unicode="&#x2026;" horiz-adv-x="931" d="M84 59q0 30 21 51t51 21q29 0 49 -21t20 -51q0 -29 -20 -49t-49 -20q-31 0 -51.5 20t-20.5 49zM395 59q0 29 20.5 50.5t49.5 21.5t50.5 -21.5t21.5 -50.5t-21 -49t-51 -20q-29 0 -49.5 20t-20.5 49zM705 59q0 29 20.5 50.5t48.5 21.5q29 0 49.5 -21.5t20.5 -50.5 t-20.5 -49t-49.5 -20q-28 0 -48.5 20t-20.5 49z" />
<glyph unicode="&#x202f;" horiz-adv-x="315" />
<glyph unicode="&#x2039;" horiz-adv-x="473" d="M86 643l213 334h88l-190 -334l190 -330h-88z" />
<glyph unicode="&#x203a;" horiz-adv-x="473" d="M84 313l190 330l-190 334h88l213 -334l-213 -330h-88z" />
<glyph unicode="&#x205f;" horiz-adv-x="393" />
<glyph unicode="&#x20ac;" horiz-adv-x="1042" d="M70 614v56h108v118h-108v58h108v211q0 178 107.5 290.5t277.5 112.5q171 0 280 -112.5t109 -290.5v-43h-106v47q0 135 -79 215t-204 80q-122 0 -201 -79.5t-79 -215.5v-215h288v-58h-288v-118h288v-56h-288v-229q0 -136 78 -215.5t202 -79.5q122 0 202.5 79.5t80.5 215.5 v51h106v-49q0 -177 -109 -289t-280 -112q-170 0 -277.5 112t-107.5 289v227h-108z" />
<glyph unicode="&#x2122;" horiz-adv-x="1249" d="M88 1370v74h389v-74h-158v-545h-75v545h-156zM539 825v619h71l215 -449l213 449h70v-619h-74v445l-180 -373h-57l-183 375v-447h-75z" />
<glyph unicode="&#x25fc;" horiz-adv-x="1146" d="M0 0v1147h1147v-1147h-1147z" />
</font>
</defs>
</svg>
