<?xml version="1.0" encoding="utf-8"?>
<!-- Generator: Adobe Illustrator 19.2.0, SVG Export Plug-In . SVG Version: 6.00 Build 0)  -->
<svg version="1.1" id="Layer_1" xmlns="http://www.w3.org/2000/svg" xmlns:xlink="http://www.w3.org/1999/xlink" x="0px" y="0px"
	 viewBox="0 0 102 56" style="enable-background:new 0 0 102 56;" xml:space="preserve">
<style type="text/css">
	.st0{fill:#FFFFFF;}
</style>
<g>
	<path class="st0" d="M37.7,31.8v-7.1c0-3.3-1.7-4.8-3.9-4.8c-2.3,0-3.9,1.5-3.9,4.9v7c0,3.4,1.6,4.9,3.9,4.9
		C36.2,36.8,37.7,35.2,37.7,31.8 M44.1,14.6V42h-4.1c-1,0-1.8-0.8-1.8-1.8V39c-0.4,0.9-2.5,3.5-6.5,3.5c-4.9,0-8.1-3.1-8.1-10.1
		v-7.9c0-7.1,3.3-10.1,8.1-10.1c4,0,6.1,2.5,6.5,3.4v-1.3c0-1,0.8-1.8,1.8-1.8H44.1z"/>
	<path class="st0" d="M14.2,31.9v-7.1c0-3.3-1.7-4.7-3.9-4.7c-2.4,0-3.9,1.6-3.9,4.9v7c0,3.4,1.6,4.9,3.9,4.9
		C12.6,36.8,14.2,35.3,14.2,31.9 M16.4,42c-1,0-1.8-0.8-1.8-1.8v-1.2c-0.4,0.9-2.5,3.4-6.5,3.4C3.2,42.5,0,39.4,0,32.4v-8
		c0-7,3.2-10,8.1-10c4.2,0,6,2.8,6,2.8V7.2c0-1,0.8-1.8,1.8-1.8h4.6V42L16.4,42z"/>
	<path class="st0" d="M53.4,25.7h7.8v-1.3c0-3.7-1.5-4.9-3.9-4.9c-2.2,0-3.9,1.3-3.9,4.2V25.7z M67.6,28.4c0,1-0.8,1.8-1.8,1.8H53.4
		v3c0,2.4,1.9,4.1,3.9,4.1c2.1,0,3.9-1.2,3.9-3.5v-0.6h6.3v0.2c0,5-3.8,9.1-10.2,9.1c-6.5,0-10.3-4.1-10.3-10.7v-6.7
		c0-6.7,3.8-10.8,10.3-10.8c6.4,0,10.2,3.9,10.2,10.6V28.4z"/>
	<path class="st0" d="M64.4,1.1c-1,0-1.8,0.8-1.8,1.9c0,0.5,0.2,0.9,0.4,1.2l14.9,19.3l1.3-13.2l1.4,13.2l6.1-2.9l-3.1,6l11,1.4
		l-11,1.4l3.1,6l-6.1-2.9l-1.4,13.2l-1.3-13.2L63,51.8c-0.3,0.3-0.4,0.7-0.4,1.2c0,1,0.8,1.9,1.9,1.9h15.2c1.1,0,2.2-0.6,2.8-1.4
		L102,28L82.4,2.5c-0.6-0.8-1.6-1.4-2.8-1.4H64.4z"/>
</g>
</svg>
